HIERARCHY
ROOT Hips
{
  OFFSET 0 0.240689 0
  CHANNELS 6 Xposition Yposition Zposition Zrotation Xrotation Yrotation
  JOINT Bip01_Spine0
  {
    OFFSET 0 -24.7459 49.7988
    CHANNELS 6 Xposition Yposition Zposition Zrotation Xrotation Yrotation
    JOINT Bip01_Pelvis
    {
      OFFSET 0 0 0
      CHANNELS 6 Xposition Yposition Zposition Zrotation Xrotation Yrotation
      JOINT Bip01_Spine0_Tail
      {
        OFFSET -6.47486 -3.86022 0
        CHANNELS 6 Xposition Yposition Zposition Zrotation Xrotation Yrotation
        JOINT Bip01_Spine0_Tail1
        {
          OFFSET 10.3837 -0.00825882 0
          CHANNELS 6 Xposition Yposition Zposition Zrotation Xrotation Yrotation
          JOINT Bip01_Spine0_Tail2
          {
            OFFSET 10.3837 -0.00826263 0
            CHANNELS 6 Xposition Yposition Zposition Zrotation Xrotation Yrotation
            JOINT Bip01_Spine0_Tail3
            {
              OFFSET 10.3837 -0.00825882 0
              CHANNELS 6 Xposition Yposition Zposition Zrotation Xrotation Yrotation
              JOINT Bip01_Spine0_Tail4
              {
                OFFSET 10.3837 -0.00826263 0
                CHANNELS 6 Xposition Yposition Zposition Zrotation Xrotation Yrotation
                End Site
                {
                  OFFSET 0 0 0
                }
              }
            }
          }
        }
      }
      JOINT Bip01_R_Thigh
      {
        OFFSET 0 -1.52588e-005 -8.75617
        CHANNELS 6 Xposition Yposition Zposition Zrotation Xrotation Yrotation
        JOINT Bip01_R_Calf
        {
          OFFSET 19.7638 0 0
          CHANNELS 6 Xposition Yposition Zposition Zrotation Xrotation Yrotation
          JOINT Bip01_R_Foot
          {
            OFFSET 18.6534 0 0
            CHANNELS 6 Xposition Yposition Zposition Zrotation Xrotation Yrotation
            JOINT Bip01_R_Toe0
            {
              OFFSET 5.09145 13.9567 0
              CHANNELS 6 Xposition Yposition Zposition Zrotation Xrotation Yrotation
              JOINT Bip01_R_Toe01
              {
                OFFSET 4.28803 0 0
                CHANNELS 6 Xposition Yposition Zposition Zrotation Xrotation Yrotation
                JOINT Bip01_R_Toe02
                {
                  OFFSET 3.85801 0 0
                  CHANNELS 6 Xposition Yposition Zposition Zrotation Xrotation Yrotation
                  End Site
                  {
                    OFFSET 0 0 0
                  }
                }
              }
            }
          }
        }
      }
      JOINT Bip01_L_Thigh
      {
        OFFSET 0 1.52588e-005 8.75617
        CHANNELS 6 Xposition Yposition Zposition Zrotation Xrotation Yrotation
        JOINT Bip01_L_Calf
        {
          OFFSET 19.7638 0 0
          CHANNELS 6 Xposition Yposition Zposition Zrotation Xrotation Yrotation
          JOINT Bip01_L_Foot
          {
            OFFSET 18.6534 0 0
            CHANNELS 6 Xposition Yposition Zposition Zrotation Xrotation Yrotation
            JOINT Bip01_L_Toe0
            {
              OFFSET 5.09144 13.9567 0
              CHANNELS 6 Xposition Yposition Zposition Zrotation Xrotation Yrotation
              JOINT Bip01_L_Toe01
              {
                OFFSET 4.28802 0 0
                CHANNELS 6 Xposition Yposition Zposition Zrotation Xrotation Yrotation
                JOINT Bip01_L_Toe02
                {
                  OFFSET 3.85801 0 0
                  CHANNELS 6 Xposition Yposition Zposition Zrotation Xrotation Yrotation
                  End Site
                  {
                    OFFSET 0 0 0
                  }
                }
              }
            }
          }
        }
      }
      JOINT Bip01_Spine
      {
        OFFSET 9.14835 -0.00640869 -1.1e-005
        CHANNELS 6 Xposition Yposition Zposition Zrotation Xrotation Yrotation
        JOINT Bip01_Spine1
        {
          OFFSET 8.04366 -0.00638199 0
          CHANNELS 6 Xposition Yposition Zposition Zrotation Xrotation Yrotation
          JOINT Bip01_Spine2
          {
            OFFSET 8.04367 -0.00639343 0
            CHANNELS 6 Xposition Yposition Zposition Zrotation Xrotation Yrotation
            JOINT Bip01_Spine3
            {
              OFFSET 8.04304 -0.00831222 0
              CHANNELS 6 Xposition Yposition Zposition Zrotation Xrotation Yrotation
              JOINT Bip01_Neck
              {
                OFFSET 10.6685 1.06813 0
                CHANNELS 6 Xposition Yposition Zposition Zrotation Xrotation Yrotation
                JOINT Bip01_R_Clavicle
                {
                  OFFSET -3.21661 -4.89635 -9.04802
                  CHANNELS 6 Xposition Yposition Zposition Zrotation Xrotation Yrotation
                  JOINT Bip01_R_UpperArm
                  {
                    OFFSET 19.0492 0 0
                    CHANNELS 6 Xposition Yposition Zposition Zrotation Xrotation Yrotation
                    JOINT Bip01_R_Forearm
                    {
                      OFFSET 10.3706 0 0
                      CHANNELS 6 Xposition Yposition Zposition Zrotation Xrotation Yrotation
                      JOINT Bip01_R_Hand
                      {
                        OFFSET 22.8632 0 0
                        CHANNELS 6 Xposition Yposition Zposition Zrotation Xrotation Yrotation
                        JOINT Bip01_R_Finger0
                        {
                          OFFSET 6.48259 0.103651 0.504496
                          CHANNELS 6 Xposition Yposition Zposition Zrotation Xrotation Yrotation
                          JOINT Bip01_R_Finger01
                          {
                            OFFSET 3.66847 0 0
                            CHANNELS 6 Xposition Yposition Zposition Zrotation Xrotation Yrotation
                            End Site
                            {
                              OFFSET 0 0 0
                            }
                          }
                        }
                      }
                    }
                  }
                }
                JOINT Bip01_L_Clavicle
                {
                  OFFSET -3.21661 -4.89641 9.04797
                  CHANNELS 6 Xposition Yposition Zposition Zrotation Xrotation Yrotation
                  JOINT Bip01_L_UpperArm
                  {
                    OFFSET 19.0492 0 0
                    CHANNELS 6 Xposition Yposition Zposition Zrotation Xrotation Yrotation
                    JOINT Bip01_L_Forearm
                    {
                      OFFSET 10.3706 0 0
                      CHANNELS 6 Xposition Yposition Zposition Zrotation Xrotation Yrotation
                      JOINT Bip01_L_Hand
                      {
                        OFFSET 22.8631 0 0
                        CHANNELS 6 Xposition Yposition Zposition Zrotation Xrotation Yrotation
                        JOINT Bip01_L_Finger0
                        {
                          OFFSET 6.48257 0.103655 -0.504492
                          CHANNELS 6 Xposition Yposition Zposition Zrotation Xrotation Yrotation
                          JOINT Bip01_L_Finger01
                          {
                            OFFSET 3.66844 0 0
                            CHANNELS 6 Xposition Yposition Zposition Zrotation Xrotation Yrotation
                            End Site
                            {
                              OFFSET 0 0 0
                            }
                          }
                        }
                      }
                    }
                  }
                }
                JOINT Bip01_Neck1
                {
                  OFFSET 7.52459 -0.00656509 0
                  CHANNELS 6 Xposition Yposition Zposition Zrotation Xrotation Yrotation
                  JOINT Bip01_Neck2
                  {
                    OFFSET 8.4783 -0.00588226 0
                    CHANNELS 6 Xposition Yposition Zposition Zrotation Xrotation Yrotation
                    JOINT Bip01_Head
                    {
                      OFFSET 8.41606 0 0
                      CHANNELS 6 Xposition Yposition Zposition Zrotation Xrotation Yrotation
                      JOINT EyesBlue
                      {
                        OFFSET 0 0 0
                        CHANNELS 6 Xposition Yposition Zposition Zrotation Xrotation Yrotation
                        JOINT EyesBlue_2
                        {
                          OFFSET 0 -0.500007 0
                          CHANNELS 6 Xposition Yposition Zposition Zrotation Xrotation Yrotation
                          End Site
                          {
                            OFFSET 0 0 0
                          }
                        }
                      }
                      JOINT Bip01_Head2_Eyeleds
                      {
                        OFFSET 6.52751 7.61746 2.2e-005
                        CHANNELS 6 Xposition Yposition Zposition Zrotation Xrotation Yrotation
                        End Site
                        {
                          OFFSET 0 0 0
                        }
                      }
                      JOINT Bip01_Head_Muzzle
                      {
                        OFFSET 2.88628 13.9448 3.88994
                        CHANNELS 6 Xposition Yposition Zposition Zrotation Xrotation Yrotation
                        End Site
                        {
                          OFFSET 0 0 0
                        }
                      }
                      JOINT Bip01_Head1_Jaw
                      {
                        OFFSET 0.271065 1.32405 0
                        CHANNELS 6 Xposition Yposition Zposition Zrotation Xrotation Yrotation
                        JOINT _Bip01_Head11_TungeControler
                        {
                          OFFSET 4.61616 5.82872 0
                          CHANNELS 6 Xposition Yposition Zposition Zrotation Xrotation Yrotation
                          JOINT _Bip01_Ponytail3_tunge
                          {
                            OFFSET 5.17785 2.98805 0
                            CHANNELS 6 Xposition Yposition Zposition Zrotation Xrotation Yrotation
                            JOINT Bip01_Ponytail31
                            {
                              OFFSET 5.57569 0 0
                              CHANNELS 6 Xposition Yposition Zposition Zrotation Xrotation Yrotation
                              JOINT Bip01_Ponytail32
                              {
                                OFFSET 2.93165 0 0
                                CHANNELS 6 Xposition Yposition Zposition Zrotation Xrotation Yrotation
                                JOINT Bip01_Ponytail3Nub
                                {
                                  OFFSET 3.30155 0 0
                                  CHANNELS 6 Xposition Yposition Zposition Zrotation Xrotation Yrotation
                                  End Site
                                  {
                                    OFFSET 0 0 0
                                  }
                                }
                              }
                            }
                          }
                        }
                        JOINT Bip01_Head_JawNub
                        {
                          OFFSET 15.5776 -0.000389099 0
                          CHANNELS 6 Xposition Yposition Zposition Zrotation Xrotation Yrotation
                          End Site
                          {
                            OFFSET 0 0 0
                          }
                        }
                      }
                      JOINT Bip01_Ponytail2
                      {
                        OFFSET 9.40334 1.03973 -6.51764
                        CHANNELS 6 Xposition Yposition Zposition Zrotation Xrotation Yrotation
                        JOINT Bip01_Ponytail21
                        {
                          OFFSET 2.77018 -0.00640106 1.33514e-005
                          CHANNELS 6 Xposition Yposition Zposition Zrotation Xrotation Yrotation
                          End Site
                          {
                            OFFSET 0 0 0
                          }
                        }
                      }
                      JOINT Bip01_Ponytail1
                      {
                        OFFSET 9.40368 1.03969 6.51768
                        CHANNELS 6 Xposition Yposition Zposition Zrotation Xrotation Yrotation
                        JOINT Bip01_Ponytail11
                        {
                          OFFSET 2.77018 -0.00640487 0
                          CHANNELS 6 Xposition Yposition Zposition Zrotation Xrotation Yrotation
                          End Site
                          {
                            OFFSET 0 0 0
                          }
                        }
                      }
                    }
                  }
                }
              }
            }
          }
        }
      }
    }
  }
}
MOTION
Frames:	4
Frame Time:	0.0333333
0 0 0 -0 -90 -0 -0.18828 -28.7005 57.6676 87.1349 -2.88991 52.3046 0 0 0 -90 -3.50835e-015 -90 -6.47654 -3.86245 0.0219282 152.845 0.0889323 -0.173281 8.89584 -0.008029 0.000127 -12.5876 0.000477778 0.000652406 10.2239 -0.00764 9e-006 -14.9144 0.000175066 0.000359558 9.85421 -0.006031 0.000141 12.0056 0.00239421 0.00220114 8.04663 -0.005512 2e-005 20.9027 0.00280934 0.00223076 1.1e-005 -1.5e-005 -8.75617 -99.528 13.6519 149.739 19.7638 1.06581e-014 1e-006 -117.322 0.000460911 -0.00187245 18.6534 7.10543e-015 1e-006 78.0558 -0.333425 4.08089 5.09143 13.9567 -1e-006 18.9436 -3.4297 12.2559 4.288 1.24345e-014 1e-006 2.31824 -1.80422e-005 -1.65832e-005 3.85803 -1.3e-005 2.84217e-014 -45 -6.91646e-006 7.02374e-006 -1.5e-005 1.5e-005 8.75617 -81.7869 1.66802 161.472 19.7638 1e-006 -1e-006 -81.0553 7.53238e-005 0.000953923 18.6534 1e-006 1e-006 -16.7838 -16.8358 -16.0498 5.09144 13.9567 1.6479e-006 88.2326 28.6081 -4.84696 4.288 -1.77636e-014 1e-006 7.7384 0.000846658 0.00136847 3.858 1e-006 -4.61853e-014 -2.5 -1.72554e-005 -8.71981e-007 9.14709 -0.006309 -0.0285941 -5.51655 -22.179 -10.6913 8.04416 -0.006271 0.000116 4.50748 -2.5821 -0.388179 8.04443 -0.006271 0.000119 7.97965 -3.61472 -0.894233 8.04235 -0.00814 9.09999e-005 -8.17634 -4.12694 1.64503 10.6679 1.06833 2.04466e-006 -20.1631 -8.5289e-006 5.48256e-005 -2.6064 -5.24654 -9.04788 -159.889 -74.9373 129.501 19.0492 -2.13163e-014 -1e-006 63.2698 6.57408 -96.8822 10.3706 1e-006 8.52651e-014 -126.366 -0.000649236 0.00198446 22.8631 3e-006 -1e-006 59.6167 34.7209 -5.43471 6.48256 0.103651 0.504495 -28.1873 -12.585 -9.40671 3.66843 -3.41061e-013 3e-006 40.107 5.0511e-006 7.49432e-006 -2.60552 -5.24646 9.04799 -159.876 74.4168 -129.506 19.0492 -7.81597e-014 1e-006 77.826 -8.37934 73.387 10.3706 -3.55272e-015 2.66453e-015 -47.0876 0.000715753 0.00173707 22.8631 -1.42109e-014 -1.15463e-014 47.2803 -0.245844 20.4028 6.48256 0.103649 -0.504495 53.1559 11.745 -10.5417 3.66843 6.57253e-014 -1e-006 41.9182 0.00255057 0.00109367 7.52853 -0.006172 3.49998e-005 17.9862 -0.0817322 -17.7285 8.47656 -0.006404 6.80007e-005 6.7024 0.0197094 14.7866 8.41605 7.10543e-015 1.42109e-014 -51.0549 -9.96446 -10.355 -3e-006 7e-006 -3e-006 -23.1098 1.37701e-015 90 1.78191e-008 -0.5 1.48829e-008 -95.9788 90 -174.021 0 0 0 -112.651 3.24611e-014 -180 5.78377 16.2082 3.88993 -22.989 1.37021e-015 90 0 0 0 -71.5859 -1.52588e-005 -180 0 0 0 -158.837 1.79406e-005 -7.16286e-006 0 0 0 167.24 -2.44208e-005 1.17186e-005 0 0 0 1.83152 -1.29879e-007 6.94571e-008 0 0 0 -17.65 7.23241e-007 -6.19206e-007 0 0 0 -26.1943 2.66665e-007 -1.17829e-006 15.5776 -0.000392 -6.99998e-006 -8.82781e-032 -1.59028e-015 -3.18055e-015 9.40556 1.0411 -6.51575 56.1838 -35.3787 113.482 2.76733 -0.003068 -0.004936 7.56546 -28.9514 28.0925 9.40602 1.04106 6.51586 56.1844 35.3789 -113.487 2.76731 -0.00308 0.00497 7.56452 28.9534 -28.0943 
0 0 0 -0 -90 -0 -0.194109 -28.7005 56.4626 85.4535 -1.7649 50.6296 0 0 0 -90 -4.41766e-006 -90.6635 -6.47698 -3.86245 0.0472877 154.51 0.180517 -0.378517 8.89584 -0.008029 0.000127 -7.50093 0.00053374 0.000607475 10.2239 -0.00764 9e-006 -22.0015 0.000129367 0.00037841 9.85421 -0.006031 0.000141 -1.47681 0.00181504 0.00269868 8.04663 -0.005512 2e-005 6.21254 0.0021518 0.00287026 1.1e-005 -1.5e-005 -8.75617 -97.9416 13.7633 148.752 19.7638 -1.42109e-014 1e-006 -117.689 0.000467571 -0.00187225 18.6534 0 1e-006 79.7363 0.811143 4.99781 5.09143 13.9567 -1e-006 18.1336 -3.70259 12.5312 4.288 1.42109e-014 1e-006 1.93771 -1.79394e-005 -1.67035e-005 3.85803 -1.3e-005 2.13163e-014 -45 -6.88614e-006 7.03505e-006 -1.5e-005 1.5e-005 8.75617 -86.6739 2.27082 162.08 19.7638 1e-006 -1e-006 -97.4783 -5.35355e-005 0.000955221 18.6534 1e-006 1e-006 10.4562 -18.7368 -12.0642 5.09144 13.9567 1.28633e-006 54.6285 24.9067 4.86784 4.288 -1.06581e-014 1e-006 0.477202 0.00066699 0.00146416 3.858 1e-006 -3.73035e-014 -2.5 -1.72431e-005 -8.41729e-007 9.1474 -0.006309 -0.0643047 -5.48207 -22.8992 -10.6325 8.04416 -0.006271 0.000116 4.53458 -2.66353 -0.24986 8.04443 -0.006271 0.000119 8.03967 -3.72932 -0.76083 8.04235 -0.00814 9.09999e-005 -8.1606 -4.25683 1.80181 10.6679 1.06833 2.04467e-006 -20.1631 -8.59296e-006 5.48258e-005 -2.60609 -5.24651 -9.04799 -159.883 -75.615 129.501 19.0492 -3.55271e-014 -1e-006 62.2823 6.72589 -96.7814 10.3706 1e-006 8.52651e-014 -128.631 -0.000706388 0.00197415 22.8631 3e-006 -1e-006 62.1799 34.9253 -6.29155 6.48256 0.103651 0.504495 -27.3347 -13.4533 -8.85938 3.66843 -4.54748e-013 3e-006 41.6182 6.2309e-006 5.87091e-006 -2.60594 -5.24646 9.04792 -159.884 74.4175 -129.499 19.0492 -6.75016e-014 1e-006 76.8567 -10.6821 72.7288 10.3706 -7.10543e-015 8.88178e-016 -43.5586 0.000785808 0.00172678 22.8631 0 7.10542e-015 49.0897 1.06919 21.3676 6.48256 0.103649 -0.504495 55.7929 11.7059 -11.2969 3.66843 7.63834e-014 -1e-006 44.6942 0.00260192 0.000967872 7.52853 -0.006172 3.49998e-005 18.4997 -0.143853 -17.9232 8.47656 -0.006404 6.80007e-005 7.4585 -0.0114429 15.6608 8.41605 0 0 -50.2261 -9.74614 -10.5103 -3e-006 7e-006 -3e-006 -23.1098 1.37701e-015 90 2.09307e-008 -0.5 1.71949e-008 -94.0044 90 -175.996 0 0 0 -113.539 7.01671e-015 -180 5.41543 16.2308 3.88993 -22.989 1.37021e-015 90 0 0 0 -85.3358 7.01671e-015 -180 0 0 0 -159.053 1.97213e-005 -6.69643e-006 0 0 0 167.428 -2.34955e-005 1.24129e-005 0 0 0 1.83152 -3.20123e-007 1.07673e-008 0 0 0 -17.65 1.96648e-006 -5.03231e-009 0 0 0 -26.1943 7.83343e-007 -8.75017e-007 15.5776 -0.000392 -6.99999e-006 -3.18055e-015 -3.18055e-015 3.18055e-015 9.40556 1.0411 -6.51575 57.2113 -35.304 114.481 2.76733 -0.003068 -0.004936 7.56396 -28.9474 28.5137 9.40602 1.04106 6.51586 57.2132 35.3042 -114.482 2.76731 -0.00308 0.00497 7.56312 28.9503 -28.5116 
0 0 0 -0 -90 -0 -0.199558 -28.7005 54.9558 83.3566 0.0183752 53.0644 0 0 0 -90 -4.35063e-006 -90.3334 -6.47743 -3.86245 0.0161115 156.667 0.0570063 -0.132044 8.89584 -0.008029 0.000127 -0.710928 0.000601819 0.00054011 10.2239 -0.00764 9e-006 -31.0111 6.85121e-005 0.000394 9.85421 -0.006031 0.000141 -18.0202 0.000971482 0.00310378 8.04663 -0.005512 2e-005 -12.092 0.00114146 0.00340084 1.1e-005 -1.5e-005 -8.75617 -99.6247 13.7396 149.703 19.7638 -7.10543e-015 1e-006 -116.822 0.000451731 -0.00187277 18.6534 3.55271e-015 1e-006 77.3258 -0.0618936 4.16208 5.09143 13.9567 -1e-006 19.3761 -3.27571 12.5526 4.288 2.13163e-014 1e-006 2.47175 -1.81223e-005 -1.65432e-005 3.85803 -1.3e-005 -2.84217e-014 -45 -6.90407e-006 7.19012e-006 -1.5e-005 1.5e-005 8.75617 -91.8746 0.36724 165.422 19.7638 1e-006 -1e-006 -108.162 -0.000154119 0.000954416 18.6534 1e-006 1e-006 34.2197 -15.8703 -10.6588 5.09144 13.9567 8.99446e-007 27.1906 18.1448 12.4807 4.288 1.06581e-014 1e-006 -2.44394 0.000591545 0.00149617 3.858 1e-006 -2.39808e-014 -2.5 -1.72691e-005 -8.21383e-007 9.14764 -0.006309 -0.0203759 -5.49235 -21.799 -10.5789 8.04416 -0.006271 0.000116 4.48276 -2.53761 -0.409677 8.04443 -0.006271 0.000119 7.92017 -3.5519 -0.911157 8.04235 -0.00814 9.09999e-005 -8.18206 -4.05665 1.59861 10.6679 1.06833 2.03986e-006 -20.1631 -8.61152e-006 5.47369e-005 -2.60608 -5.24651 -9.048 -159.881 -74.8361 129.503 19.0492 -4.26326e-014 -1e-006 63.945 4.24195 -96.7915 10.3706 1e-006 6.39488e-014 -128.141 -0.00068842 0.00197983 22.8631 3e-006 -1e-006 58.8674 34.7151 -5.14567 6.48256 0.103651 0.504495 -28.6006 -12.4551 -9.54404 3.66843 -7.10543e-014 3e-006 40.8663 2.07367e-006 1.0412e-005 -2.60598 -5.24646 9.0479 -159.884 74.4177 -129.498 19.0492 -7.99361e-014 1e-006 78.1835 -8.39206 74.343 10.3706 1.42109e-014 -1.15463e-014 -48.4594 0.000688909 0.00174035 22.8631 1.42109e-014 4.44089e-015 46.4824 -0.702064 20.0343 6.48256 0.103649 -0.504495 52.0217 11.9095 -10.2611 3.66843 6.39489e-014 -1e-006 41.3728 0.00254078 0.00111757 7.52853 -0.006172 3.49998e-005 17.7055 -0.0271935 -17.5924 8.47656 -0.006404 6.80008e-005 6.31217 -0.0309404 14.5264 8.41605 1.42109e-014 7.10543e-015 -51.5486 -9.97211 -10.5485 -3e-006 7e-006 -3e-006 -23.1098 1.37701e-015 90 1.64543e-008 -0.5 1.78664e-008 -93.429 90 -176.571 0 0 0 -112.573 7.01671e-015 -180 5.04709 16.2534 3.88993 -22.989 1.37021e-015 90 0 0 0 -85.3358 -7.01671e-015 -180 0 0 0 -159.269 1.94067e-005 -6.53068e-006 0 0 0 167.615 -2.37273e-005 1.24745e-005 0 0 0 1.83152 -2.96779e-007 4.4278e-009 0 0 0 -17.65 1.81052e-006 4.80004e-008 0 0 0 -26.1943 7.29803e-007 -7.32602e-007 15.5776 -0.000392 -6.99999e-006 3.18055e-015 3.18055e-015 -3.18055e-015 9.40556 1.0411 -6.51575 55.1219 -35.5026 112.403 2.76733 -0.003068 -0.004936 7.56081 -28.9621 27.6549 9.40602 1.04106 6.51586 55.124 35.5022 -112.405 2.76731 -0.00308 0.00497 7.5603 28.9654 -27.6528 
0 0 0 -0 -90 -0 -0.204761 -28.7005 56.0081 83.1733 0.372448 58.8977 0 0 0 -90 -3.50835e-015 -90 -6.47792 -3.86245 -0.000266 160.805 -0.000358792 0.00116629 8.89584 -0.008029 0.000127 6.34373 0.000663597 0.000462108 10.2239 -0.00764 9e-006 -39.7054 8.16664e-006 0.000399829 9.85421 -0.006031 0.000141 -31.4423 0.000224485 0.00324451 8.04663 -0.005512 2e-005 -27.8869 0.000172672 0.00358313 1.1e-005 -1.5e-005 -8.75617 -104.041 13.1551 151.884 19.7638 7.10543e-015 1e-006 -113.081 0.000384669 -0.00187435 18.6534 2.13163e-014 1e-006 68.6357 -1.4592 2.33277 5.09143 13.9567 -1e-006 24.5876 -1.50021 12.8025 4.288 1.06581e-014 1e-006 4.69375 -1.88362e-005 -1.58616e-005 3.85803 -1.3e-005 -1.35003e-013 -45 -6.81435e-006 7.48911e-006 -1.5e-005 1.5e-005 8.75617 -95.5414 -0.506142 169.412 19.7638 1e-006 -1e-006 -113.375 -0.000192939 0.000958419 18.6534 1e-006 1e-006 45.889 -13.6403 -10.2322 5.09144 13.9567 7.25022e-007 20.6741 14.8859 12.7373 4.288 1.42109e-014 1e-006 -2.77271 0.000582945 0.00149954 3.858 1e-006 -2.39808e-014 -2.5 -1.72765e-005 -8.14741e-007 9.14769 -0.006309 0.0024697 -5.26116 -19.1818 -9.47444 8.04416 -0.006271 0.000116 4.28373 -2.23147 -0.451882 8.04443 -0.006271 0.000119 7.44923 -3.11895 -0.914019 8.04235 -0.00814 9.1e-005 -8.21442 -3.57025 1.34675 10.6679 1.06833 2.03694e-006 -20.1631 -8.52661e-006 5.4683e-005 -2.60595 -5.24655 -9.04799 -159.879 -74.4098 129.503 19.0492 -4.9738e-014 -1e-006 68.2473 2.64392 -96.1937 10.3706 1e-006 5.68434e-014 -127.551 -0.000689582 0.00196944 22.8631 3e-006 -1e-006 53.5214 34.3357 -3.22043 6.48256 0.103651 0.504495 -31.8262 -11.565 -10.3772 3.66843 4.12115e-013 3e-006 40.107 -2.75065e-006 1.60447e-005 -2.60584 -5.24643 9.04786 -159.881 74.4173 -129.5 19.0492 -7.99361e-014 1e-006 79.6618 -7.61037 78.0244 10.3706 5.32907e-015 1.77636e-015 -55.4224 0.000558094 0.00175263 22.8631 7.10543e-015 -3.55271e-015 40.3207 -3.85181 16.7107 6.48256 0.103649 -0.504495 43.1268 13.1199 -8.23576 3.66843 3.19745e-014 -1e-006 37.6292 0.00246267 0.0012828 7.52853 -0.006172 3.49999e-005 15.799 0.389136 -16.5954 8.47656 -0.006404 6.80008e-005 3.69377 -0.428129 13.2672 8.41605 7.10543e-015 0 -55.2608 -10.5975 -12.8955 -3e-006 7e-006 -3e-006 -23.1098 1.37701e-015 90 9.87303e-009 -0.5 1.73682e-008 -93.856 90 -176.144 0 0 0 -111.606 7.01671e-015 -180 4.67874 16.276 3.88993 -22.989 1.37021e-015 90 0 0 0 -85.3358 -7.01671e-015 -180 0 0 0 -159.485 2.06228e-005 -6.4062e-006 0 0 0 167.803 -2.30845e-005 1.28379e-005 0 0 0 1.83152 -4.61886e-007 -1.85213e-008 0 0 0 -17.65 2.6814e-006 3.15662e-007 0 0 0 -26.1943 7.71363e-007 -7.45689e-007 15.5776 -0.000392 -6.99999e-006 3.53113e-031 -3.18055e-015 6.36111e-015 9.40556 1.0411 -6.51575 46.5099 -35.4898 104.02 2.76733 -0.003068 -0.004936 7.56383 -28.9805 24.157 9.40602 1.04106 6.51586 46.5107 35.4885 -104.02 2.76731 -0.00308 0.00497 7.56384 28.9835 -24.1548 
